<svg xmlns="http://www.w3.org/2000/svg" viewBox="0 0 613.16 112.87"><defs><style>.cls-1{opacity:0.44;}.cls-2{fill:#83cace;}</style></defs><g id="Layer_2" data-name="Layer 2"><g id="Layer_1-2" data-name="Layer 1"><g class="cls-1"><path class="cls-2" d="M.75,53.18c4.07,25.73,25.7,46.47,49.61,54.57,25.24,8.54,47.87.23,69.22-13.26C122,93,129.92,90,123.91,91.9c-.58.18-6.94.7-2,.54,5.87-.18-5.58-2.42-.09,0,3.44,1.54,7.57,2.3,11.15,3.63,4.5,1.67.06,0-.72-.34,3.16,1.33,6.28,2.76,9.43,4.1,24,10.28,46.71,16.36,73,11,10-2,19.44-6.25,28.8-10.29,4.31-1.86,8.58-3.8,12.86-5.74,1.83-.82,3.64-1.69,5.49-2.47-4.07,1.7-2,.67.89-.14,2.46-.69,4.88-1.51,7.34-2.21,1-.3,6.49-.55,1.78-.46-5.65.12,1.89.49,1.82.38.85,1.43-6.72-4.72-1.36.31,5,4.67,23.85,10.16,34.39,11.58,22.42,3,42.46-2.89,63.26-10.55,3.86-1.42,7.73-2.86,11.67-4.06,2.6-.79,5.19-1.47,7.83-2.1.81-.2,6.68-.49,2.26-.43-5,.06,2.16.32,2.3.36-.87-.28-5.66-1.25-.56.27,5.9,1.75,11.5,4.06,17.21,6.32,12.87,5.11,26.48,8.15,40.44,7.38,12.49-.7,29.13-5.3,39.14-6.41,19-2.1,42.71.75,59.82,8.29,20.82,9.17,45.28,6.09,57.69-15.13,10.47-17.91,5.82-48.46-15.13-57.69-24-10.57-47.28-17.29-73.51-19.65-22.95-2-44.8,2.21-67.31,6-4.94.82-1.77.46-.7.28-4.7.78-6.34.25-2.86.67-4.4-.54-8.92-2.6-13-4.17C424.6,7.13,415,3.38,403.61,1.85c-21.69-2.91-41.74,2.83-61.87,10.32-3.85,1.43-7.7,2.86-11.61,4.1-1.77.56-11.71,3.17-7.93,2.49,4.84-.86-9-.92-4.28.08,5.06,1.07-2.69-1.25-2.92-1.36,3.25,1.59-3.21-1.66-3.34-1.72C288.79,5,264.45,2.62,240.33,10.93c-9.68,3.34-19,7.73-28.36,12-2.44,1.11-4.87,2.28-7.35,3.32.78-.33,5.36-2.06.82-.47a90,90,0,0,1-13.15,3.84c7.74-1.46-4.43-.93,3,.15-4-.58-7.76-2-11.59-3.16-7.12-2.12,1.75,1-5.12-1.94-6.47-2.8-12.92-5.64-19.45-8.31C134.44,6.22,108.2,5.25,84,17.57a140.5,140.5,0,0,0-12.09,7.49c-.41.27-5.19,3-5.16,3.23-.21-1.81,8.39-.68,9-.74,4.31-.38.41.58-1.35-.47,2.07,1.24,4.25,2.39,6.34,3.62-1-.61-3.66-4.94-1.22-1.21,1.51,2.31,3.61,8.29,2.5,1.27C78.51,8.25,50.39-4.24,30.2,1.31,6.22,7.9-2.82,30.6.75,53.18Z"/></g></g></g></svg>